<svg width="1024" height="1024" viewBox="0 0 1024 1024" fill="none" xmlns="http://www.w3.org/2000/svg">
<rect x="154" y="439.581" width="68.1073" height="141.454" rx="34.0537" fill="white"/>
<rect x="295.453" y="347.024" width="68.1073" height="330.059" rx="34.0537" fill="white"/>
<rect x="688.381" y="406.4" width="68.1073" height="209.561" rx="34.0537" fill="white"/>
<circle cx="838.565" cy="511.18" r="31.4341" fill="white"/>
<path fill-rule="evenodd" clip-rule="evenodd" d="M496.283 292.888V147.941C496.283 132.51 483.773 120 468.341 120H457.863C442.432 120 429.922 132.51 429.922 147.941V876.166C429.922 891.597 442.432 904.107 457.863 904.107H468.341C483.773 904.107 496.283 891.597 496.283 876.166V731.22L496.283 707.644C496.283 692.695 508.402 680.576 523.351 680.576C538.301 680.576 550.42 692.695 550.42 707.644V731.22V760.907C550.42 777.304 563.711 790.595 580.107 790.595H587.093C603.489 790.595 616.78 777.304 616.78 760.907V261.454C616.78 245.058 603.489 231.766 587.093 231.766H580.107C563.711 231.766 550.42 245.058 550.42 261.454V292.888V314.717C550.42 329.667 538.301 341.785 523.351 341.785C508.402 341.785 496.283 329.667 496.283 314.717L496.283 292.888ZM506.761 412.512C506.761 400.456 516.534 390.683 528.59 390.683C540.646 390.683 550.42 400.456 550.42 412.512V602.863C550.42 614.919 540.646 624.693 528.59 624.693C516.534 624.693 506.761 614.919 506.761 602.863V412.512Z" fill="white"/>
</svg>
